<mxfile host="app.diagrams.net" agent="Mozilla/5.0 (Windows NT 10.0; Win64; x64) AppleWebKit/537.36 (KHTML, like Gecko) Chrome/133.0.0.0 Safari/537.36" version="26.0.14">
  <diagram name="Page-1" id="52a04d89-c75d-2922-d76d-85b35f80e030">
    <mxGraphModel dx="2600" dy="1733" grid="1" gridSize="10" guides="1" tooltips="1" connect="1" arrows="1" fold="1" page="1" pageScale="1" pageWidth="1100" pageHeight="850" background="none" math="0" shadow="0">
      <root>
        <mxCell id="0" />
        <mxCell id="1" parent="0" />
        <mxCell id="qSisWuBdxw-oNze_zUju-8" value="" style="whiteSpace=wrap;html=1;aspect=fixed;fillColor=none;" parent="1" vertex="1">
          <mxGeometry x="-120" y="-240" width="1640" height="1640" as="geometry" />
        </mxCell>
        <mxCell id="qSisWuBdxw-oNze_zUju-15" style="edgeStyle=orthogonalEdgeStyle;rounded=0;orthogonalLoop=1;jettySize=auto;html=1;exitX=0;exitY=0.5;exitDx=0;exitDy=0;entryX=1;entryY=0.5;entryDx=0;entryDy=0;" parent="1" source="qSisWuBdxw-oNze_zUju-1" target="qSisWuBdxw-oNze_zUju-10" edge="1">
          <mxGeometry relative="1" as="geometry" />
        </mxCell>
        <mxCell id="qSisWuBdxw-oNze_zUju-1" value="&lt;b style=&quot;font-size: 20px;&quot;&gt;&lt;font style=&quot;font-size: 20px;&quot;&gt;Full&lt;/font&gt;&lt;/b&gt;&lt;div style=&quot;font-size: 20px;&quot;&gt;&lt;b style=&quot;&quot;&gt;&lt;font style=&quot;font-size: 20px;&quot;&gt;Adder&lt;/font&gt;&lt;/b&gt;&lt;/div&gt;" style="whiteSpace=wrap;html=1;aspect=fixed;" parent="1" vertex="1">
          <mxGeometry x="250" y="410" width="190" height="190" as="geometry" />
        </mxCell>
        <mxCell id="qSisWuBdxw-oNze_zUju-10" value="&lt;b style=&quot;font-size: 20px;&quot;&gt;&lt;font style=&quot;font-size: 20px;&quot;&gt;Full&lt;/font&gt;&lt;/b&gt;&lt;div style=&quot;font-size: 20px;&quot;&gt;&lt;b style=&quot;&quot;&gt;&lt;font style=&quot;font-size: 20px;&quot;&gt;Adder&lt;/font&gt;&lt;/b&gt;&lt;/div&gt;" style="whiteSpace=wrap;html=1;aspect=fixed;" parent="1" vertex="1">
          <mxGeometry y="410" width="190" height="190" as="geometry" />
        </mxCell>
        <mxCell id="qSisWuBdxw-oNze_zUju-20" value="" style="edgeStyle=orthogonalEdgeStyle;rounded=0;orthogonalLoop=1;jettySize=auto;html=1;" parent="1" source="qSisWuBdxw-oNze_zUju-11" target="qSisWuBdxw-oNze_zUju-12" edge="1">
          <mxGeometry relative="1" as="geometry" />
        </mxCell>
        <mxCell id="qSisWuBdxw-oNze_zUju-11" value="&lt;b style=&quot;font-size: 20px;&quot;&gt;&lt;font style=&quot;font-size: 20px;&quot;&gt;Full&lt;/font&gt;&lt;/b&gt;&lt;div style=&quot;font-size: 20px;&quot;&gt;&lt;b style=&quot;&quot;&gt;&lt;font style=&quot;font-size: 20px;&quot;&gt;Adder&lt;/font&gt;&lt;/b&gt;&lt;/div&gt;" style="whiteSpace=wrap;html=1;aspect=fixed;" parent="1" vertex="1">
          <mxGeometry x="1240" y="410" width="190" height="190" as="geometry" />
        </mxCell>
        <mxCell id="qSisWuBdxw-oNze_zUju-19" value="" style="edgeStyle=orthogonalEdgeStyle;rounded=0;orthogonalLoop=1;jettySize=auto;html=1;" parent="1" source="qSisWuBdxw-oNze_zUju-12" target="qSisWuBdxw-oNze_zUju-13" edge="1">
          <mxGeometry relative="1" as="geometry" />
        </mxCell>
        <mxCell id="qSisWuBdxw-oNze_zUju-12" value="&lt;b style=&quot;font-size: 20px;&quot;&gt;&lt;font style=&quot;font-size: 20px;&quot;&gt;Full&lt;/font&gt;&lt;/b&gt;&lt;div style=&quot;font-size: 20px;&quot;&gt;&lt;b style=&quot;&quot;&gt;&lt;font style=&quot;font-size: 20px;&quot;&gt;Adder&lt;/font&gt;&lt;/b&gt;&lt;/div&gt;" style="whiteSpace=wrap;html=1;aspect=fixed;" parent="1" vertex="1">
          <mxGeometry x="990" y="410" width="190" height="190" as="geometry" />
        </mxCell>
        <mxCell id="qSisWuBdxw-oNze_zUju-17" style="edgeStyle=orthogonalEdgeStyle;rounded=0;orthogonalLoop=1;jettySize=auto;html=1;exitX=0;exitY=0.5;exitDx=0;exitDy=0;entryX=1;entryY=0.5;entryDx=0;entryDy=0;" parent="1" source="qSisWuBdxw-oNze_zUju-13" target="qSisWuBdxw-oNze_zUju-14" edge="1">
          <mxGeometry relative="1" as="geometry" />
        </mxCell>
        <mxCell id="qSisWuBdxw-oNze_zUju-13" value="&lt;b style=&quot;font-size: 20px;&quot;&gt;&lt;font style=&quot;font-size: 20px;&quot;&gt;Full&lt;/font&gt;&lt;/b&gt;&lt;div style=&quot;font-size: 20px;&quot;&gt;&lt;b style=&quot;&quot;&gt;&lt;font style=&quot;font-size: 20px;&quot;&gt;Adder&lt;/font&gt;&lt;/b&gt;&lt;/div&gt;" style="whiteSpace=wrap;html=1;aspect=fixed;" parent="1" vertex="1">
          <mxGeometry x="740" y="410" width="190" height="190" as="geometry" />
        </mxCell>
        <mxCell id="qSisWuBdxw-oNze_zUju-18" value="" style="edgeStyle=orthogonalEdgeStyle;rounded=0;orthogonalLoop=1;jettySize=auto;html=1;" parent="1" source="qSisWuBdxw-oNze_zUju-14" target="qSisWuBdxw-oNze_zUju-1" edge="1">
          <mxGeometry relative="1" as="geometry" />
        </mxCell>
        <mxCell id="qSisWuBdxw-oNze_zUju-14" value="&lt;b style=&quot;font-size: 20px;&quot;&gt;&lt;font style=&quot;font-size: 20px;&quot;&gt;Full&lt;/font&gt;&lt;/b&gt;&lt;div style=&quot;font-size: 20px;&quot;&gt;&lt;b style=&quot;&quot;&gt;&lt;font style=&quot;font-size: 20px;&quot;&gt;Adder&lt;/font&gt;&lt;/b&gt;&lt;/div&gt;" style="whiteSpace=wrap;html=1;aspect=fixed;" parent="1" vertex="1">
          <mxGeometry x="500" y="410" width="190" height="190" as="geometry" />
        </mxCell>
        <mxCell id="qSisWuBdxw-oNze_zUju-28" value="" style="endArrow=none;html=1;rounded=0;" parent="1" edge="1">
          <mxGeometry width="50" height="50" relative="1" as="geometry">
            <mxPoint x="960" y="1650" as="sourcePoint" />
            <mxPoint x="960" y="1390" as="targetPoint" />
          </mxGeometry>
        </mxCell>
        <mxCell id="qSisWuBdxw-oNze_zUju-29" value="" style="endArrow=none;html=1;rounded=0;" parent="1" edge="1">
          <mxGeometry width="50" height="50" relative="1" as="geometry">
            <mxPoint x="320" y="1660" as="sourcePoint" />
            <mxPoint x="320" y="1400" as="targetPoint" />
          </mxGeometry>
        </mxCell>
        <mxCell id="qSisWuBdxw-oNze_zUju-30" value="" style="endArrow=none;html=1;rounded=0;" parent="1" edge="1">
          <mxGeometry width="50" height="50" relative="1" as="geometry">
            <mxPoint x="640" y="1660" as="sourcePoint" />
            <mxPoint x="640" y="1400" as="targetPoint" />
          </mxGeometry>
        </mxCell>
        <mxCell id="qSisWuBdxw-oNze_zUju-31" value="&lt;font style=&quot;font-size: 20px;&quot;&gt;C_Out&lt;/font&gt;" style="text;html=1;align=center;verticalAlign=middle;whiteSpace=wrap;rounded=0;" parent="1" vertex="1">
          <mxGeometry x="240" y="1630" width="60" height="30" as="geometry" />
        </mxCell>
        <mxCell id="qSisWuBdxw-oNze_zUju-33" value="&lt;font style=&quot;font-size: 20px;&quot;&gt;Overflow&lt;/font&gt;" style="text;html=1;align=center;verticalAlign=middle;whiteSpace=wrap;rounded=0;" parent="1" vertex="1">
          <mxGeometry x="565" y="1630" width="60" height="30" as="geometry" />
        </mxCell>
        <mxCell id="qSisWuBdxw-oNze_zUju-34" value="&lt;font style=&quot;font-size: 20px;&quot;&gt;Sum&lt;/font&gt;" style="text;html=1;align=center;verticalAlign=middle;whiteSpace=wrap;rounded=0;" parent="1" vertex="1">
          <mxGeometry x="890" y="1630" width="60" height="30" as="geometry" />
        </mxCell>
        <mxCell id="qSisWuBdxw-oNze_zUju-38" value="" style="endArrow=none;html=1;rounded=0;" parent="1" target="qSisWuBdxw-oNze_zUju-37" edge="1">
          <mxGeometry width="50" height="50" relative="1" as="geometry">
            <mxPoint x="960" y="-240" as="sourcePoint" />
            <mxPoint x="960" y="-500" as="targetPoint" />
          </mxGeometry>
        </mxCell>
        <mxCell id="qSisWuBdxw-oNze_zUju-37" value="&lt;span style=&quot;font-size: 20px;&quot;&gt;Sel&lt;/span&gt;" style="text;html=1;align=center;verticalAlign=middle;whiteSpace=wrap;rounded=0;" parent="1" vertex="1">
          <mxGeometry x="930" y="-510" width="60" height="30" as="geometry" />
        </mxCell>
        <mxCell id="qSisWuBdxw-oNze_zUju-40" value="" style="endArrow=none;html=1;rounded=0;" parent="1" target="qSisWuBdxw-oNze_zUju-36" edge="1">
          <mxGeometry width="50" height="50" relative="1" as="geometry">
            <mxPoint x="640" y="-240" as="sourcePoint" />
            <mxPoint x="640" y="-500" as="targetPoint" />
          </mxGeometry>
        </mxCell>
        <mxCell id="qSisWuBdxw-oNze_zUju-36" value="&lt;font style=&quot;font-size: 20px;&quot;&gt;Y&lt;/font&gt;" style="text;html=1;align=center;verticalAlign=middle;whiteSpace=wrap;rounded=0;" parent="1" vertex="1">
          <mxGeometry x="610" y="-510" width="60" height="30" as="geometry" />
        </mxCell>
        <mxCell id="qSisWuBdxw-oNze_zUju-41" value="" style="endArrow=none;html=1;rounded=0;" parent="1" target="qSisWuBdxw-oNze_zUju-35" edge="1">
          <mxGeometry width="50" height="50" relative="1" as="geometry">
            <mxPoint x="320" y="-240" as="sourcePoint" />
            <mxPoint x="320" y="-500" as="targetPoint" />
          </mxGeometry>
        </mxCell>
        <mxCell id="qSisWuBdxw-oNze_zUju-35" value="&lt;font style=&quot;font-size: 20px;&quot;&gt;X&lt;/font&gt;" style="text;html=1;align=center;verticalAlign=middle;whiteSpace=wrap;rounded=0;" parent="1" vertex="1">
          <mxGeometry x="290" y="-510" width="60" height="30" as="geometry" />
        </mxCell>
        <mxCell id="bU1eyAZyvOpyUCY9r7sr-2" value="" style="endArrow=none;html=1;rounded=0;exitX=1;exitY=0.5;exitDx=0;exitDy=0;entryX=0.659;entryY=0;entryDx=0;entryDy=0;entryPerimeter=0;" edge="1" parent="1" source="qSisWuBdxw-oNze_zUju-11" target="qSisWuBdxw-oNze_zUju-8">
          <mxGeometry width="50" height="50" relative="1" as="geometry">
            <mxPoint x="620" y="220" as="sourcePoint" />
            <mxPoint x="960" y="-250" as="targetPoint" />
            <Array as="points">
              <mxPoint x="1480" y="505" />
              <mxPoint x="1480" y="240" />
              <mxPoint x="1480" />
              <mxPoint x="960" />
            </Array>
          </mxGeometry>
        </mxCell>
        <mxCell id="bU1eyAZyvOpyUCY9r7sr-3" value="" style="endArrow=classic;html=1;rounded=0;entryX=1;entryY=0.5;entryDx=0;entryDy=0;" edge="1" parent="1" target="qSisWuBdxw-oNze_zUju-11">
          <mxGeometry width="50" height="50" relative="1" as="geometry">
            <mxPoint x="1480" y="505" as="sourcePoint" />
            <mxPoint x="1360" y="290" as="targetPoint" />
          </mxGeometry>
        </mxCell>
        <mxCell id="bU1eyAZyvOpyUCY9r7sr-4" value="XOR&lt;div&gt;&lt;br&gt;&lt;/div&gt;" style="whiteSpace=wrap;html=1;aspect=fixed;" vertex="1" parent="1">
          <mxGeometry x="730" y="80" width="150" height="150" as="geometry" />
        </mxCell>
      </root>
    </mxGraphModel>
  </diagram>
</mxfile>
